<svg width="34" height="35" viewBox="0 0 34 35" fill="none" xmlns="http://www.w3.org/2000/svg">
<g id="cart">
<path id="Vector" d="M30.2992 13.0556L29.0395 8.42383C28.5538 6.63788 28.3108 5.7449 27.8127 5.07239C27.3166 4.40264 26.6424 3.88639 25.8674 3.58271C25.0892 3.27779 24.166 3.27779 22.3195 3.27779M3.7002 13.0556L4.95992 8.42383C5.44566 6.63788 5.68852 5.7449 6.18669 5.07239C6.68281 4.40264 7.35695 3.88639 8.13198 3.58271C8.91019 3.27779 9.83343 3.27779 11.6799 3.27779" stroke="black" stroke-width="2"/>
<path id="Vector_2" d="M11.6799 3.27778C11.6799 2.29595 12.4738 1.5 13.4531 1.5H20.5462C21.5256 1.5 22.3195 2.29595 22.3195 3.27778C22.3195 4.25961 21.5256 5.05556 20.5462 5.05556H13.4531C12.4738 5.05556 11.6799 4.25961 11.6799 3.27778Z" stroke="black" stroke-width="2"/>
<path id="Vector_3" d="M9.90668 19.2778V26.3889" stroke="black" stroke-width="2" stroke-linecap="round" stroke-linejoin="round"/>
<path id="Vector_4" d="M24.0927 19.2778V26.3889" stroke="black" stroke-width="2" stroke-linecap="round" stroke-linejoin="round"/>
<path id="Vector_5" d="M16.9997 19.2778V26.3889" stroke="black" stroke-width="2" stroke-linecap="round" stroke-linejoin="round"/>
<path id="Vector_6" d="M2.57236 25.4204C3.53998 29.3007 4.0238 31.2408 5.46685 32.3704C6.90991 33.5 8.9047 33.5 12.8943 33.5H21.1057C25.0953 33.5 27.0901 33.5 28.5332 32.3704C29.9762 31.2408 30.46 29.3007 31.4277 25.4204C32.949 19.3194 33.7097 16.2689 32.1123 14.2179C30.515 12.1667 27.3786 12.1667 21.1057 12.1667H12.8943C6.62153 12.1667 3.48515 12.1667 1.88772 14.2179C0.950037 15.4218 0.824897 16.9702 1.18918 19.2778" stroke="black" stroke-width="2" stroke-linecap="round"/>
</g>
</svg>
