<svg width="16" height="13" viewBox="0 0 16 13" fill="none" xmlns="http://www.w3.org/2000/svg">
<g id="Group 13">
<path id="Vector" d="M6.19998 6.45356C6.19998 5.45948 7.0059 4.65356 7.99998 4.65356C8.99406 4.65356 9.79998 5.45948 9.79998 6.45356C9.79998 7.44764 8.99406 8.25356 7.99998 8.25356C7.0059 8.25356 6.19998 7.44764 6.19998 6.45356Z" fill="#CC3292"/>
<path id="Vector_2" fill-rule="evenodd" clip-rule="evenodd" d="M0 6.45359C0 7.76511 0.339968 8.20679 1.01991 9.09015C2.37757 10.8539 4.65449 12.8536 8 12.8536C11.3455 12.8536 13.6224 10.8539 14.9801 9.09015C15.66 8.20679 16 7.76511 16 6.45359C16 5.14207 15.66 4.70041 14.9801 3.81705C13.6224 2.05324 11.3455 0.0535889 8 0.0535889C4.65449 0.0535889 2.37757 2.05324 1.01991 3.81705C0.339968 4.70041 0 5.14207 0 6.45359ZM8 3.45359C6.34314 3.45359 5 4.79673 5 6.45359C5 8.11047 6.34314 9.45359 8 9.45359C9.65688 9.45359 11 8.11047 11 6.45359C11 4.79673 9.65688 3.45359 8 3.45359Z" fill="#CC3292"/>
</g>
</svg>
