<svg width="26" height="24" viewBox="0 0 26 24" fill="none" xmlns="http://www.w3.org/2000/svg">
<g id="Group 20">
<path id="Vector" d="M25.0731 11.9258C25.0449 9.62486 24.3597 7.37995 23.0982 5.4554C21.8368 3.53086 20.0517 2.00683 17.9532 1.06282C15.8546 0.118814 13.53 -0.205862 11.2531 0.127009C8.97622 0.459896 6.84186 1.43646 5.1014 2.94174C3.36093 4.44701 2.08684 6.41828 1.42917 8.62338C0.771518 10.8285 0.757662 13.1756 1.38927 15.3884C2.02087 17.6011 3.27161 19.5872 4.9942 21.1129C6.71677 22.6386 8.83946 23.6403 11.1123 24V15.4424H8.09371V11.9258H11.1123V9.25433C11.0424 8.63321 11.1097 8.00427 11.3095 7.41197C11.5094 6.81967 11.8367 6.27844 12.2685 5.82649C12.7003 5.37452 13.226 5.02284 13.8086 4.79628C14.3912 4.56971 15.0165 4.47377 15.6401 4.51524C16.5454 4.52763 17.4485 4.60836 18.3417 4.75673V7.77529H16.8324C16.5722 7.74246 16.3078 7.76854 16.0591 7.85159C15.8102 7.93465 15.5832 8.07255 15.3948 8.25512C15.2065 8.43768 15.0616 8.66024 14.9709 8.9063C14.88 9.15246 14.8458 9.41583 14.8704 9.67693V11.9559H18.221L17.6776 15.4726H14.8855V23.9245C17.7378 23.4734 20.3341 22.0148 22.2032 19.8134C24.0723 17.612 25.0905 14.8136 25.0731 11.9258Z" fill="white"/>
</g>
</svg>
