<svg width="25" height="24" viewBox="0 0 25 24" fill="none" xmlns="http://www.w3.org/2000/svg">
<g id="Group 19">
<path id="Vector" d="M17.7757 0H8.07645C6.18065 0.00144464 4.3629 0.755191 3.02236 2.09573C1.68183 3.43627 0.92808 5.25401 0.926636 7.14982V16.8491C0.927791 18.7451 1.68141 20.5631 3.02198 21.9039C4.36255 23.2447 6.18046 23.9986 8.07645 24H17.7757C19.6716 23.9983 21.4894 23.2443 22.8299 21.9036C24.1704 20.5629 24.9241 18.745 24.9255 16.8491V7.14982C24.9247 5.25383 24.1711 3.43575 22.8305 2.09509C21.4898 0.754428 19.6717 0.000867264 17.7757 0ZM22.5125 16.8491C22.5122 18.1053 22.013 19.3099 21.1248 20.1981C20.2365 21.0864 19.0319 21.5855 17.7757 21.5858H8.07645C7.45447 21.5858 6.83858 21.4633 6.26395 21.2252C5.68933 20.9872 5.16723 20.6383 4.72747 20.1984C4.28771 19.7585 3.93891 19.2364 3.70098 18.6617C3.46306 18.087 3.34067 17.4711 3.34082 16.8491V7.14982C3.34067 6.52789 3.46307 5.91202 3.701 5.3374C3.93894 4.76278 4.28776 4.24067 4.72753 3.8009C5.16731 3.36113 5.68942 3.01231 6.26403 2.77437C6.83865 2.53643 7.45452 2.41404 8.07645 2.41418H17.7757C19.0316 2.41447 20.236 2.9135 21.124 3.80154C22.012 4.68958 22.5111 5.89394 22.5114 7.14982L22.5125 16.8491Z"/>
<path id="Vector_2" d="M12.9266 5.79485C9.50336 5.79485 6.72154 8.57776 6.72154 11.9999C6.72154 15.4221 9.50445 18.205 12.9266 18.205C16.3488 18.205 19.1317 15.4221 19.1317 11.9999C19.1317 8.57776 16.3499 5.79485 12.9266 5.79485ZM12.9266 15.7909C11.9212 15.791 10.9569 15.3917 10.2459 14.6809C9.53486 13.9701 9.13532 13.0059 9.13518 12.0005C9.13503 10.9951 9.53429 10.0308 10.2451 9.31975C10.956 8.60871 11.9201 8.20918 12.9255 8.20903C13.931 8.20889 14.8952 8.60815 15.6063 9.31898C16.3173 10.0298 16.7169 10.994 16.717 11.9994C16.7171 13.0048 16.3179 13.9691 15.6071 14.6801C14.8962 15.3912 13.932 15.7907 12.9266 15.7909ZM19.1448 4.35376C19.4388 4.35398 19.7261 4.44134 19.9705 4.6048C20.2148 4.76827 20.4053 5.0005 20.5177 5.27216C20.6301 5.54381 20.6594 5.84269 20.602 6.13102C20.5446 6.41935 20.403 6.68419 20.1951 6.89207C19.9872 7.09995 19.7224 7.24155 19.4341 7.29895C19.1457 7.35636 18.8469 7.32701 18.5752 7.2146C18.3036 7.1022 18.0713 6.91179 17.9079 6.66743C17.7444 6.42308 17.657 6.13575 17.6568 5.84176C17.6568 5.0214 18.2132 4.35376 19.1448 4.35376Z" />
</g>
</svg>
