<svg width="18" height="21" viewBox="0 0 18 21" fill="none" xmlns="http://www.w3.org/2000/svg">
<path d="M9 1.5C5.27231 1.5 2.25 4.52231 2.25 8.25C2.25 9.71784 2.73122 11.0647 3.53109 12.1678C3.54544 12.1943 3.54769 12.2238 3.564 12.2491L8.064 18.9991C8.27269 19.3121 8.62425 19.5 9 19.5C9.37575 19.5 9.72731 19.3121 9.936 18.9991L14.436 12.2491C14.4526 12.2238 14.4546 12.1943 14.4689 12.1678C15.2688 11.0647 15.75 9.71784 15.75 8.25C15.75 4.52231 12.7277 1.5 9 1.5ZM9 10.5C7.75744 10.5 6.75 9.49256 6.75 8.25C6.75 7.00744 7.75744 6 9 6C10.2426 6 11.25 7.00744 11.25 8.25C11.25 9.49256 10.2426 10.5 9 10.5Z" stroke="black" stroke-width="0.008"/>
</svg>
