<svg width="190" height="54" viewBox="0 0 190 54" fill="none" xmlns="http://www.w3.org/2000/svg">
<g clip-path="url(#clip0_277_322)">
<path fill-rule="evenodd" clip-rule="evenodd" d="M168.974 7.47469C168.556 7.47469 168.217 7.1413 168.217 6.72901C168.217 6.3167 168.556 5.98243 168.974 5.98243C169.392 5.98241 169.732 6.31671 169.732 6.72901C169.732 7.14044 169.392 7.47469 168.974 7.47469ZM161.337 37.0012V35.3528C161.861 35.4114 162.579 35.4476 163.248 35.4604L164.807 37.0012H161.337ZM184.21 21.0889V15.6072L185.408 16.1126C185.487 16.1453 185.569 16.1614 185.649 16.1614C185.868 16.1614 186.076 16.0464 186.186 15.8482C186.337 15.5752 186.253 15.2343 185.992 15.0606L175.19 7.87687C175.26 7.50395 175.298 7.1211 175.298 6.72901C175.298 3.29449 172.461 0.5 168.974 0.5C165.488 0.5 162.65 3.29452 162.65 6.72901C162.65 11.2583 164.53 15.0713 166.349 18.7595C166.862 19.8023 167.365 20.8259 167.811 21.8395C167.349 21.6699 166.846 21.5137 166.299 21.3683C164.177 20.8057 161.643 20.2305 158.943 20.2305C157.651 20.2305 156.41 20.3565 155.148 20.6159C150.62 21.5497 147.806 24.4711 147.806 28.2413C147.806 32.2509 150.024 33.5005 150.118 33.5516C150.359 33.6819 150.659 33.638 150.851 33.4442L152.342 31.9319C153.183 32.6667 155.051 34.0984 158.543 34.8952L158.543 37.0012H154.876C154.105 37.0012 153.48 37.6174 153.48 38.3766V41.3004C153.48 42.0604 154.106 42.6758 154.877 42.6758C155.648 42.6758 156.274 42.0604 156.274 41.3004V39.753H158.543V48.4957H158.539V52.138C158.539 52.191 158.545 52.2428 158.554 52.294C158.623 52.9716 159.204 53.5 159.91 53.5H162.809C163.562 53.5 164.172 52.8989 164.172 52.1569C164.172 51.4148 163.562 50.8128 162.809 50.8128H161.333V49.4791H161.337V39.753H168.171C168.735 39.753 169.243 39.4178 169.46 38.9046C169.676 38.391 169.558 37.7998 169.159 37.406L166.795 35.0665C168.038 34.7189 169.123 34.1471 170.004 33.3636C171.465 32.0637 172.27 30.2448 172.27 28.2405C172.27 27.3974 172.193 26.6493 172.026 25.9833C171.565 23.0435 170.194 20.2625 168.861 17.5571C168.048 15.9069 167.219 14.2283 166.583 12.4944C167.321 12.7917 168.128 12.9578 168.974 12.9578C170.739 12.9578 172.339 12.2398 173.487 11.0861L181.417 14.429V21.0023C180.019 23.0143 175.567 29.925 175.567 33.146C175.567 37.0658 178.804 40.2542 182.783 40.2542C186.763 40.2542 190 37.0658 190 33.146C190 29.9703 185.607 23.2055 184.21 21.0889Z" fill="#383838"/>
<path fill-rule="evenodd" clip-rule="evenodd" d="M12.2261 29.5927C11.4307 30.7229 10.3064 31.2873 8.8522 31.2873C7.39806 31.2873 6.28166 30.715 5.50419 29.5683C4.81061 28.588 4.46439 27.3492 4.46439 25.8543C4.46439 24.3083 4.79374 23.0374 5.45353 22.0405C6.23101 20.8605 7.36426 20.2704 8.8522 20.2704C10.3402 20.2704 11.4819 20.8605 12.2768 22.0405C12.936 23.0374 13.2659 24.3083 13.2659 25.8543C13.2659 27.3492 12.9192 28.5958 12.2261 29.5927ZM15.3968 19.1171C13.7901 17.3372 11.6085 16.4478 8.8522 16.4478C6.11278 16.4477 3.93968 17.3461 2.33354 19.1426C0.777446 20.856 0 23.0763 0 25.8044C0 28.5315 0.777446 30.7439 2.33354 32.4406C3.93968 34.2206 6.11278 35.11 8.8522 35.11C11.5917 35.11 13.7732 34.2284 15.3968 32.465C16.9523 30.7528 17.7303 28.5315 17.7303 25.8044C17.7303 23.0597 16.9523 20.8304 15.3968 19.1171Z" fill="#6F62A5"/>
<path fill-rule="evenodd" clip-rule="evenodd" d="M28.3863 30.2882C27.915 30.988 27.2501 31.3374 26.3922 31.3374C25.5337 31.3374 24.8604 30.988 24.3728 30.2882C23.9517 29.6728 23.7417 28.923 23.7417 28.0402C23.7417 27.1741 23.9602 26.4334 24.3982 25.8168C24.8856 25.1335 25.5505 24.7921 26.3922 24.7921C27.2501 24.7921 27.915 25.1335 28.3863 25.8168C28.7899 26.4156 28.9921 27.1575 28.9921 28.0402C28.9921 28.923 28.7899 29.6728 28.3863 30.2882ZM31.1229 21.0947C30.2942 21.0947 29.6428 21.5194 29.1699 22.3688C28.3412 21.4029 27.2417 20.9194 25.872 20.9194C23.9951 20.9194 22.448 21.6691 21.2303 23.1684C20.0802 24.5669 19.5054 26.2082 19.5054 28.0902C19.5054 29.9555 20.0548 31.5792 21.1542 32.962C22.3545 34.4603 23.8769 35.21 25.72 35.21C27.1742 35.21 28.3238 34.7022 29.1699 33.6863C29.5758 34.6356 30.2267 35.1102 31.1229 35.1102C32.4757 35.1102 33.1524 34.1265 33.1524 32.157L33.1524 24.0224C33.1524 22.0705 32.4757 21.0947 31.1229 21.0947Z" fill="#CD1D82"/>
<path fill-rule="evenodd" clip-rule="evenodd" d="M36.3228 32.157V24.0224C36.3228 22.0705 37.0157 21.0947 38.4029 21.0947C39.2142 21.0947 39.8649 21.5194 40.3558 22.3689C41.1333 21.5194 42.3341 21.0947 43.9578 21.0947C47.2889 21.0947 48.9548 22.8468 48.9548 26.3502V32.157C48.9548 34.1265 48.2696 35.1102 46.8999 35.1102C45.5302 35.1102 44.8455 34.1276 44.8455 32.1625L44.8455 27.5901C44.8455 26.5909 44.7279 25.8834 44.4926 25.4663C44.1728 24.8675 43.5591 24.5669 42.6515 24.5669C41.2053 24.5669 40.4825 25.5584 40.4825 27.5402L40.4825 32.1625C40.4825 34.1276 39.7934 35.1102 38.4152 35.1102C37.0202 35.1102 36.3228 34.1265 36.3228 32.157H36.3228Z" fill="#79B940"/>
<path fill-rule="evenodd" clip-rule="evenodd" d="M60.169 30.2882C59.6979 30.988 59.0328 31.3374 58.175 31.3374C57.3165 31.3374 56.6431 30.988 56.1555 30.2882C55.7344 29.6728 55.5245 28.923 55.5245 28.0402C55.5245 27.1741 55.7429 26.4334 56.1809 25.8168C56.6683 25.1335 57.3333 24.7921 58.175 24.7921C59.0328 24.7921 59.6978 25.1335 60.169 25.8168C60.5726 26.4156 60.7748 27.1575 60.7748 28.0402C60.7748 28.923 60.5726 29.6728 60.169 30.2882ZM62.9056 21.0947C62.077 21.0947 61.4255 21.5194 60.9526 22.3688C60.1239 21.4029 59.0245 20.9194 57.6548 20.9194C55.7778 20.9194 54.2307 21.6691 53.013 23.1684C51.8629 24.5669 51.2881 26.2082 51.2881 28.0902C51.2881 29.9555 51.8375 31.5792 52.9369 32.962C54.1372 34.4603 55.6596 35.21 57.5027 35.21C58.9569 35.21 60.1065 34.7022 60.9526 33.6863C61.3585 34.6356 62.0094 35.1102 62.9056 35.1102C64.2584 35.1102 64.9351 34.1265 64.9351 32.157L64.9351 24.0224C64.9351 22.0705 64.2584 21.0947 62.9056 21.0947Z" fill="#00B0D7"/>
<path fill-rule="evenodd" clip-rule="evenodd" d="M83.4074 30.3634C82.8973 31.0798 82.2008 31.438 81.3175 31.438C80.4337 31.438 79.7451 31.1042 79.2531 30.4377C78.8112 29.8387 78.5905 29.0891 78.5905 28.1897V27.9146C78.5905 26.9986 78.8027 26.2412 79.2271 25.6413C79.7198 24.9582 80.4168 24.6165 81.3174 24.6165C82.2177 24.6165 82.9141 24.9837 83.4073 25.7167C83.8317 26.3499 84.0439 27.1317 84.0439 28.0644C84.0439 28.9804 83.8317 29.7468 83.4073 30.3634H83.4074ZM86.5554 23.1426C85.3715 21.6278 83.8238 20.8692 81.9131 20.8692C80.6453 20.8692 79.5712 21.2606 78.6917 22.0437L78.5906 22.0437V18.3462C78.5906 16.3811 77.9392 15.3979 76.6375 15.3979C75.2503 15.3979 74.5574 16.3822 74.5574 18.3496L74.5574 32.2077C74.5574 34.1761 75.2503 35.1598 76.6375 35.1598C77.4151 35.1598 78.0664 34.7185 78.5905 33.8356C79.3855 34.7516 80.4927 35.2097 81.9131 35.2097C82.7418 35.2097 83.5368 35.0267 84.298 34.6607C85.5321 34.0608 86.4957 33.1614 87.1894 31.9625C87.8656 30.8126 88.2039 29.5383 88.2039 28.1398C88.2039 26.2079 87.6543 24.5422 86.5554 23.1426Z" fill="#F18127"/>
<path fill-rule="evenodd" clip-rule="evenodd" d="M114.556 30.3634C114.046 31.0798 113.349 31.438 112.466 31.438C111.582 31.438 110.893 31.1042 110.401 30.4377C109.959 29.8387 109.739 29.0891 109.739 28.1897V27.9146C109.739 26.9986 109.951 26.2412 110.375 25.6413C110.868 24.9582 111.565 24.6165 112.466 24.6165C113.366 24.6165 114.062 24.9837 114.555 25.7167C114.98 26.3499 115.192 27.1317 115.192 28.0644C115.192 28.9804 114.98 29.7468 114.556 30.3634H114.556ZM117.704 23.1426C116.52 21.6278 114.972 20.8692 113.061 20.8692C111.794 20.8692 110.719 21.2606 109.84 22.0437L109.739 22.0437V18.3462C109.739 16.3811 109.087 15.3979 107.786 15.3979C106.399 15.3979 105.706 16.3822 105.706 18.3496V32.2077C105.706 34.1761 106.399 35.1598 107.786 35.1598C108.563 35.1598 109.215 34.7185 109.739 33.8356C110.534 34.7516 111.641 35.2097 113.061 35.2097C113.89 35.2097 114.685 35.0267 115.446 34.6607C116.68 34.0608 117.644 33.1614 118.338 31.9625C119.014 30.8126 119.352 29.5383 119.352 28.1398C119.352 26.2079 118.803 24.5422 117.704 23.1426H117.704Z" fill="#79B940"/>
<path fill-rule="evenodd" clip-rule="evenodd" d="M126.125 24.8796C126.615 24.4383 127.224 24.2175 127.951 24.2175C128.661 24.2175 129.266 24.4427 129.764 24.8919C130.263 25.3421 130.538 25.9165 130.589 26.6164L125.186 26.6164C125.321 25.9 125.634 25.3211 126.125 24.8796ZM132.669 30.3637C132.432 30.3637 131.823 30.5843 130.842 31.0258C129.862 31.4671 129.025 31.6879 128.332 31.6879C127.503 31.6879 126.801 31.4793 126.226 31.0634C125.651 30.6465 125.321 30.0476 125.237 29.2646H132.212C132.905 29.2646 133.464 29.106 133.887 28.7899C134.377 28.4395 134.622 27.9315 134.622 27.2651C134.622 26.0329 134.25 24.8919 133.506 23.8428C132.762 22.7936 131.806 22.003 130.64 21.4694C129.828 21.1034 128.923 20.9194 127.926 20.9194C125.913 20.9194 124.26 21.6281 122.966 23.0432C121.673 24.4593 121.026 26.166 121.026 28.1645C121.026 30.1806 121.702 31.8753 123.055 33.2492C124.408 34.6233 126.099 35.3098 128.128 35.3098C129.211 35.3098 130.25 35.1435 131.248 34.8107C132.432 34.4282 133.294 33.8703 133.836 33.1361C134.14 32.737 134.292 32.3377 134.292 31.9373C134.292 30.8881 133.751 30.3637 132.669 30.3637Z" fill="#CD1D82"/>
<path fill-rule="evenodd" clip-rule="evenodd" d="M131.26 15.5491L129.926 18.1358C129.595 18.7764 129.218 19.1538 128.794 19.268C127.88 19.5135 127.296 19.1783 127.043 18.2626C126.954 17.9417 127 17.5406 127.183 17.0604L128.33 14.0839C128.574 13.4485 128.974 13.0563 129.529 12.9073C129.986 12.7845 130.405 12.827 130.787 13.0352C131.169 13.2428 131.422 13.5726 131.547 14.0219C131.663 14.4402 131.567 14.9493 131.26 15.5491Z" fill="#CD1D82"/>
<path fill-rule="evenodd" clip-rule="evenodd" d="M94.9765 24.8796C95.4669 24.4383 96.0755 24.2175 96.8028 24.2175C97.5127 24.2175 98.1174 24.4427 98.6161 24.8919C99.115 25.3421 99.3897 25.9165 99.4408 26.6164L94.038 26.6164C94.1731 25.9 94.4855 25.3211 94.9765 24.8796ZM101.521 30.3637C101.284 30.3637 100.675 30.5843 99.6942 31.0258C98.7135 31.4671 97.8765 31.6879 97.1834 31.6879C96.3546 31.6879 95.6527 31.4793 95.0779 31.0634C94.5024 30.6465 94.1731 30.0476 94.0886 29.2646H101.064C101.757 29.2646 102.316 29.106 102.738 28.7899C103.229 28.4395 103.474 27.9315 103.474 27.2651C103.474 26.0329 103.101 24.8919 102.358 23.8428C101.614 22.7936 100.658 22.003 99.4915 21.4694C98.6797 21.1034 97.7749 20.9194 96.7774 20.9194C94.7649 20.9194 93.1119 21.6281 91.8183 23.0432C90.5245 24.4593 89.8777 26.166 89.8777 28.1645C89.8777 30.1806 90.5537 31.8753 91.9071 33.2492C93.26 34.6233 94.9511 35.3098 96.98 35.3098C98.0621 35.3098 99.102 35.1435 100.1 34.8107C101.284 34.4282 102.146 33.8703 102.688 33.1361C102.992 32.737 103.144 32.3377 103.144 31.9373C103.144 30.8881 102.603 30.3637 101.521 30.3637Z" fill="#6F62A5"/>
<path fill-rule="evenodd" clip-rule="evenodd" d="M100.17 15.5491L98.8359 18.1358C98.5051 18.7764 98.1282 19.1538 97.7034 19.268C96.79 19.5135 96.2063 19.1783 95.9525 18.2626C95.8636 17.9417 95.91 17.5406 96.0927 17.0604L97.2397 14.0839C97.4842 13.4485 97.8845 13.0563 98.439 12.9073C98.8957 12.7845 99.3149 12.827 99.697 13.0352C100.079 13.2428 100.332 13.5726 100.457 14.0219C100.573 14.4402 100.477 14.9493 100.17 15.5491Z" fill="#6F62A5"/>
<path fill-rule="evenodd" clip-rule="evenodd" d="M182.783 37.5032C180.344 37.5032 178.36 35.5484 178.36 33.1458C178.36 31.5548 180.669 27.3176 182.783 23.9922C184.897 27.3166 187.206 31.553 187.206 33.1458C187.206 35.5484 185.221 37.5032 182.783 37.5032L182.783 37.5032Z" fill="#A00D57"/>
</g>
<defs>
<clipPath id="clip0_277_322">
<rect width="190" height="53" fill="white" transform="translate(0 0.5)"/>
</clipPath>
</defs>
</svg>
