<svg width="25" height="25" viewBox="0 0 25 25" fill="none" xmlns="http://www.w3.org/2000/svg">
<path d="M6.50296 0.835452C7.87545 1.83659 8.94493 3.20381 9.85935 4.51097L10.3906 5.28466L10.8917 6.02347C11.4066 6.77664 11.2836 7.80499 10.5842 8.41037L8.23924 10.1518C8.00682 10.3245 7.92954 10.6382 8.06894 10.8919C8.59949 11.8577 9.54468 13.2948 10.6263 14.3765C11.7091 15.4592 13.2141 16.4654 14.2462 17.0557C14.5139 17.2087 14.8505 17.1201 15.0197 16.8623L16.5452 14.5386C17.1303 13.7602 18.2226 13.5901 19.0167 14.1397L19.8144 14.691C21.3029 15.7245 22.9037 16.8987 24.1262 18.4644C24.5368 18.99 24.5977 19.6775 24.3529 20.2488C23.3472 22.5955 20.8022 24.594 18.1548 24.4966L17.7937 24.4765L17.5137 24.4524L17.2039 24.4176L16.8655 24.3707L16.4998 24.3099C16.4366 24.2985 16.3724 24.2864 16.3071 24.2737L15.9028 24.1889C15.8334 24.1733 15.763 24.1569 15.6916 24.1398L15.2516 24.0272L14.7895 23.8941L14.3064 23.7387C12.0874 22.987 9.27177 21.5088 6.38286 18.6199C3.49393 15.7309 2.01578 12.9153 1.26402 10.6963L1.10864 10.2133L0.97551 9.75112L0.862951 9.31117L0.7693 8.89469C0.741048 8.75992 0.71567 8.62928 0.692886 8.50297L0.632041 8.13727L0.585096 7.79888L0.550382 7.48906L0.526229 7.2091L0.506152 6.84794C0.409057 4.20937 2.43029 1.64564 4.76616 0.644554C5.31428 0.409645 5.97815 0.452634 6.50296 0.835452ZM16.2791 5.15558L16.4185 5.17196C17.2934 5.3262 18.0969 5.75345 18.714 6.39244C19.3311 7.03143 19.7299 7.84937 19.8536 8.72904C19.946 9.38633 19.488 9.994 18.8307 10.0864C18.2204 10.1722 17.6528 9.78347 17.5009 9.20122L17.4734 9.06355C17.4204 8.68656 17.2494 8.33601 16.985 8.06217C16.7645 7.83395 16.4887 7.66876 16.1859 7.58178L16.0012 7.53909C15.3476 7.42384 14.9111 6.8005 15.0264 6.14684C15.1334 5.53985 15.6785 5.12015 16.2791 5.15558ZM16.2891 1.50259C17.236 1.50259 18.1738 1.6891 19.0486 2.05149C19.9236 2.41387 20.7185 2.94503 21.3881 3.61463C22.0576 4.28423 22.5889 5.07917 22.9512 5.95404C23.3136 6.82891 23.5001 7.7666 23.5001 8.71356C23.5001 9.3773 22.962 9.91539 22.2983 9.91539C21.6819 9.91539 21.1739 9.45143 21.1045 8.85371L21.0964 8.71356C21.0964 8.08225 20.9722 7.45713 20.7305 6.87388C20.4889 6.29062 20.1348 5.76068 19.6884 5.31427C19.242 4.86787 18.7121 4.51377 18.1288 4.27218C17.6427 4.07085 17.1276 3.95095 16.6041 3.91657L16.2891 3.90624C15.6253 3.90624 15.0873 3.36816 15.0873 2.70442C15.0873 2.04067 15.6253 1.50259 16.2891 1.50259Z" fill="white"/>
</svg>
